Coordinates
version=1
nRows=9
nColumns=36
inDegrees=yes

Units are S.I. units (second, meters, Newtons, ...)
If the header above contains a line with 'inDegrees', this indicates whether rotational values are in degrees (yes) or radians (no).

endheader
time	pelvis_tilt	pelvis_list	pelvis_rotation	pelvis_tx	pelvis_ty	pelvis_tz	hip_flexion_r	hip_adduction_r	hip_rotation_r	knee_angle_r	knee_angle_r_beta	ankle_angle_r	subtalar_angle_r	mtp_angle_r	hip_flexion_l	hip_adduction_l	hip_rotation_l	knee_angle_l	knee_angle_l_beta	ankle_angle_l	subtalar_angle_l	mtp_angle_l	lumbar_extension	lumbar_bending	lumbar_rotation	arm_flex_r	arm_add_r	arm_rot_r	elbow_flex_r	pro_sup_r	arm_flex_l	arm_add_l	arm_rot_l	elbow_flex_l	pro_sup_l
      2.76666670	    -46.98435537	     -9.16524047	      0.95006538	      1.01118536	      0.59402681	     -0.26259672	    113.72917733	    -10.60444114	     -4.08694076	    104.22591248	      1.81908534	     38.42437179	     -5.70377177	     -7.49999987	    119.00322308	    -16.74614308	      8.72444291	    104.85459961	      1.83005800	     40.09985898	     -4.04819169	     -7.49999987	    -19.59826842	      2.34134647	      6.06402453	     73.12949298	    -37.82190039	     11.51512664	    100.37387540	     71.27647952	     81.86404164	    -40.30896504	     34.88442287	    101.21976653	     80.47043413
      2.78333330	    -47.11095717	     -9.59106195	      0.81200440	      1.03109395	      0.60829877	     -0.27127931	    111.18650765	     -9.81016862	     -4.77229802	    101.08296244	      1.76423051	     37.93103271	     -6.77569551	     -7.49999987	    116.81026797	    -16.22260178	      8.91291102	    102.30718943	      1.78559730	     39.84362557	     -4.76942800	     -7.49999987	    -17.15063756	      3.62415349	      7.59796621	     77.94317429	    -43.80958346	     14.76281911	    103.49920736	     73.10574796	     84.06956368	    -39.30359191	     33.98846224	    103.38957179	     84.66243623
      2.80000000	    -46.22017062	     -9.49551668	      1.13812647	      1.05546675	      0.64874536	     -0.27877131	    106.65437640	     -9.16529179	     -4.79647973	     96.97019564	      1.69244919	     37.60002504	     -7.44308819	     -7.49999987	    112.04162305	    -15.33449096	      8.40521905	     98.63761051	      1.72155107	     39.96535747	     -5.14426157	     -7.49999987	    -16.33414293	      4.69354882	      8.80589086	     80.37546414	    -47.50429984	     15.57549991	    105.32591528	     73.42371019	     80.82206280	    -37.22615022	     28.99382553	    105.11243850	     84.04253190
      2.81666670	    -44.39416276	     -9.16041198	      1.61339084	      1.07624450	      0.67627134	     -0.28848505	    100.59525436	     -8.54853925	     -4.45634240	     92.24277200	      1.60994008	     37.38151552	     -7.94525016	     -7.49999987	    105.38635270	    -14.31735209	      7.73518140	     94.26615982	      1.64525486	     40.30181312	     -5.19902085	     -7.49999987	    -16.21423474	      5.46054671	      8.51110867	     80.74156812	    -48.74114953	     13.32658562	    107.69215011	     81.04065174	     77.37056427	    -37.15634386	     23.57945850	    108.19794449	     91.51216055
      2.83333330	    -41.91216332	     -8.57543750	      2.25935546	      1.07689891	      0.70111647	     -0.29445990	     93.97512793	     -8.14329077	     -3.85114865	     87.29375041	      1.52356336	     36.91946889	     -8.42990980	     -7.49999987	     98.07511502	    -13.18056639	      6.83130748	     89.55620013	      1.56305056	     40.16144485	     -5.60439472	     -7.49999987	    -17.06510436	      5.43811611	      7.09456308	     83.36463952	    -48.91890486	     11.29556844	    109.65060295	     79.00547883	     79.69140370	    -38.73211081	     23.56013556	    110.21770615	     87.79288973
      2.85000000	    -38.74046466	     -7.62781188	      2.93692313	      1.08696916	      0.71903119	     -0.29904399	     87.02875910	     -7.95890535	     -3.06397434	     82.67942080	      1.44302812	     36.65870292	     -8.43370927	     -7.49999987	     90.27527113	    -12.05053097	      5.72523387	     84.94473365	      1.48256528	     39.91809293	     -6.05400086	     -7.49999987	    -17.36557633	      4.90660676	      5.20679179	     86.31570912	    -49.11509401	      9.85290637	    112.12295571	     79.78758240	     81.75121621	    -40.73450383	     22.81731425	    112.02899329	     87.70826323
      2.86666670	    -34.90634255	     -6.67545092	      3.39899783	      1.10506530	      0.73964746	     -0.30292404	     79.73112759	     -7.76133671	     -2.40836240	     78.57984482	      1.37147702	     36.52446165	     -8.29801935	     -7.49999987	     82.17010856	    -11.11765067	      4.92629059	     80.69654843	      1.40842047	     39.81762034	     -6.28861396	     -7.49999987	    -17.33853191	      4.35775100	      3.40510760	     93.21557362	    -46.59105721	     13.37613953	    110.57964298	     81.84923058	     83.35114678	    -43.56613472	     22.01759006	    113.75478413	     86.80646523
      2.88333330	    -30.49456109	     -5.39050300	      3.72689590	      1.12598440	      0.77063443	     -0.30508236	     71.45208103	     -7.69594882	     -1.59734335	     74.04316854	      1.29229708	     36.18808247	     -8.28199514	     -7.49999987	     72.83357899	    -10.19499726	      3.86467547	     75.61499750	      1.31973067	     39.34447079	     -6.31949558	     -7.49999987	    -18.05049824	      3.19036167	      2.21554216	     93.82931813	    -46.60128877	     13.59243981	    111.44249332	     81.40922165	     80.72926529	    -46.10530796	     20.82194656	    115.18289218	     84.58906018
      2.90000000	    -24.03478237	     -4.29470286	      3.75674795	      1.15438821	      0.80510044	     -0.30169810	     60.20499812	     -7.18810488	     -1.09369674	     68.40630762	      1.19391530	     35.57553695	     -8.57120754	     -7.49999987	     60.59709239	     -9.81426331	      2.87782620	     69.33517297	      1.21012706	     38.17902415	     -6.39128089	     -7.49999987	    -20.57316372	      2.39751002	     -0.31049474	     92.37803270	    -44.82034708	     13.41144153	    112.60318433	     89.37969141	     75.21429481	    -51.99452273	     16.92832044	    118.01404350	     84.30880811
